<?xml version="1.0" encoding="UTF-8" standalone="no"?><!DOCTYPE svg PUBLIC "-//W3C//DTD SVG 1.1//EN" "http://www.w3.org/Graphics/SVG/1.1/DTD/svg11.dtd"><svg width="3840px" height="2160px" version="1.1" xmlns="http://www.w3.org/2000/svg" xmlns:xlink="http://www.w3.org/1999/xlink" xml:space="preserve" xmlns:serif="http://www.serif.com/" style="fill-rule:evenodd;clip-rule:evenodd;stroke-linejoin:round;stroke-miterlimit:2;"><g transform="matrix(0.23427,0,0,0.788664,1515.49,85.8079)"><rect x="1970.42" y="625.721" width="63.723" height="1154.23"/></g><g transform="matrix(0.266015,0,0,0.606913,1360.69,389.65)"><rect x="1970.42" y="625.721" width="63.723" height="1154.23"/></g><g transform="matrix(0.170991,-0.20378,0.0244747,0.0205367,1535.27,1858.61)"><rect x="1970.42" y="625.721" width="63.723" height="1154.23"/></g><g transform="matrix(0.170991,-0.20378,0.139352,0.11693,1552.87,1817.63)"><rect x="1970.42" y="625.721" width="63.723" height="1154.23"/></g><g transform="matrix(0.238213,-1.84346e-17,-3.72821e-17,0.120821,1507.71,1409.28)"><rect x="1970.42" y="625.721" width="63.723" height="1154.23"/></g><g><g transform="matrix(0.090199,-0.220476,0.0723314,0.0295916,1886.61,1722.83)"><rect x="1970.42" y="625.721" width="63.723" height="1154.23"/></g><g transform="matrix(1.03416,0,0,0.988791,-32.7034,-271.74)"><path d="M2169.2,1606.18C2181.2,1606.18 2190.95,1616.38 2190.95,1628.93C2190.95,1641.49 2181.2,1651.69 2169.2,1651.69C2157.19,1651.69 2147.44,1641.49 2147.44,1628.93C2147.44,1616.38 2157.19,1606.18 2169.2,1606.18ZM2169.2,1617.56C2175.2,1617.56 2180.07,1622.65 2180.07,1628.93C2180.07,1635.21 2175.2,1640.31 2169.2,1640.31C2163.19,1640.31 2158.32,1635.21 2158.32,1628.93C2158.32,1622.65 2163.19,1617.56 2169.2,1617.56Z"/></g></g><g transform="matrix(-1,0,0,-1,3956.76,2946.09)"><g><g transform="matrix(0.090199,-0.220476,0.0723314,0.0295916,1838.07,2007.71)"><rect x="1970.42" y="625.721" width="63.723" height="1154.23"/></g><g transform="matrix(1.03416,0,0,0.988791,-83.9042,13.1418)"><path d="M2169.2,1606.18C2181.2,1606.18 2190.95,1616.38 2190.95,1628.93C2190.95,1641.49 2181.2,1651.69 2169.2,1651.69C2157.19,1651.69 2147.44,1641.49 2147.44,1628.93C2147.44,1616.38 2157.19,1606.18 2169.2,1606.18ZM2169.2,1617.56C2175.2,1617.56 2180.07,1622.65 2180.07,1628.93C2180.07,1635.21 2175.2,1640.31 2169.2,1640.31C2163.19,1640.31 2158.32,1635.21 2158.32,1628.93C2158.32,1622.65 2163.19,1617.56 2169.2,1617.56Z"/></g></g><g transform="matrix(1,0,0,1,-332.319,8.67583)"><g transform="matrix(0.0707119,-0.172843,0.0567045,0.0231984,2002.67,1916.82)"><rect x="1970.42" y="625.721" width="63.723" height="1154.23"/></g><g transform="matrix(0.793941,-4.84386e-31,-4.63136e-31,0.759111,535.06,382.049)"><path d="M2169.2,1606.18C2181.2,1606.18 2190.95,1616.38 2190.95,1628.93C2190.95,1641.49 2181.2,1651.69 2169.2,1651.69C2157.19,1651.69 2147.44,1641.49 2147.44,1628.93C2147.44,1616.38 2157.19,1606.18 2169.2,1606.18ZM2169.2,1617.56C2175.2,1617.56 2180.07,1622.65 2180.07,1628.93C2180.07,1635.21 2175.2,1640.31 2169.2,1640.31C2163.19,1640.31 2158.32,1635.21 2158.32,1628.93C2158.32,1622.65 2163.19,1617.56 2169.2,1617.56Z"/></g></g></g><g><g transform="matrix(0.090199,-0.220476,0.0723314,0.0295916,1886.61,1722.83)"><rect x="1970.42" y="625.721" width="63.723" height="1154.23"/></g><g transform="matrix(1.03416,0,0,0.988791,-32.7034,-271.74)"><path d="M2169.2,1606.18C2181.2,1606.18 2190.95,1616.38 2190.95,1628.93C2190.95,1641.49 2181.2,1651.69 2169.2,1651.69C2157.19,1651.69 2147.44,1641.49 2147.44,1628.93C2147.44,1616.38 2157.19,1606.18 2169.2,1606.18ZM2169.2,1617.56C2175.2,1617.56 2180.07,1622.65 2180.07,1628.93C2180.07,1635.21 2175.2,1640.31 2169.2,1640.31C2163.19,1640.31 2158.32,1635.21 2158.32,1628.93C2158.32,1622.65 2163.19,1617.56 2169.2,1617.56Z"/></g></g><g transform="matrix(-0.170991,-0.20378,-0.172863,0.145049,2344.65,1782.57)"><rect x="1970.42" y="625.721" width="63.723" height="1154.23"/></g><g transform="matrix(0.266015,0,0,0.622279,1578.07,362.3)"><rect x="1970.42" y="625.721" width="63.723" height="1154.23"/></g><g transform="matrix(3.06152,0,0,2.40219,-4633.03,-2191.81)"><path d="M2163.67,962.122C2331.82,962.122 2468.34,1142.01 2468.34,1363.57C2468.34,1585.13 2331.82,1765.02 2163.67,1765.02C1995.52,1765.02 1859,1585.13 1859,1363.57C1859,1142.01 1995.52,962.122 2163.67,962.122ZM2163.67,987.272C2321.29,987.272 2449.25,1155.89 2449.25,1363.57C2449.25,1571.25 2321.29,1739.87 2163.67,1739.87C2006.06,1739.87 1878.09,1571.25 1878.09,1363.57C1878.09,1155.89 2006.06,987.272 2163.67,987.272Z"/></g><g transform="matrix(1,0,0,1,4.42913,-142.441)"><path d="M2809.26,1486.69C2809.65,1486.69 2809.97,1486.72 2809.97,1486.76C2809.97,1486.8 2809.65,1486.83 2809.26,1486.83C2808.86,1486.83 2808.54,1486.8 2808.54,1486.76C2808.54,1486.72 2808.86,1486.69 2809.26,1486.69ZM2809.26,1486.7C2809.59,1486.7 2809.86,1486.73 2809.86,1486.76C2809.86,1486.79 2809.59,1486.82 2809.26,1486.82C2808.92,1486.82 2808.65,1486.79 2808.65,1486.76C2808.65,1486.73 2808.92,1486.7 2809.26,1486.7Z"/></g><g transform="matrix(1.46126,0,0,2.27926,-1117.9,-2675.61)"><path d="M2132.45,1731.45C2383.97,1731.45 2588.17,1742.26 2588.17,1755.57C2588.17,1768.88 2383.97,1779.69 2132.45,1779.69C1880.93,1779.69 1676.73,1768.88 1676.73,1755.57C1676.73,1742.26 1880.93,1731.45 2132.45,1731.45ZM2132.45,1736.55C2330.8,1736.55 2491.83,1745.07 2491.83,1755.57C2491.83,1766.07 2330.8,1774.6 2132.45,1774.6C1934.1,1774.6 1773.06,1766.07 1773.06,1755.57C1773.06,1745.07 1934.1,1736.55 2132.45,1736.55Z"/></g><g transform="matrix(1.44629,0,0,2.27926,-1087.75,-2525.02)"><path d="M2132.45,1731.45C2383.97,1731.45 2588.17,1742.26 2588.17,1755.57C2588.17,1768.88 2383.97,1779.69 2132.45,1779.69C1880.93,1779.69 1676.73,1768.88 1676.73,1755.57C1676.73,1742.26 1880.93,1731.45 2132.45,1731.45ZM2132.45,1736.55C2330.8,1736.55 2491.83,1745.07 2491.83,1755.57C2491.83,1766.07 2330.8,1774.6 2132.45,1774.6C1934.1,1774.6 1773.06,1766.07 1773.06,1755.57C1773.06,1745.07 1934.1,1736.55 2132.45,1736.55Z"/></g><g transform="matrix(1.4597,0,0,2.27926,-1113.96,-2369.64)"><path d="M2132.45,1731.45C2383.97,1731.45 2588.17,1742.26 2588.17,1755.57C2588.17,1768.88 2383.97,1779.69 2132.45,1779.69C1880.93,1779.69 1676.73,1768.88 1676.73,1755.57C1676.73,1742.26 1880.93,1731.45 2132.45,1731.45ZM2132.45,1736.55C2330.8,1736.55 2491.83,1745.07 2491.83,1755.57C2491.83,1766.07 2330.8,1774.6 2132.45,1774.6C1934.1,1774.6 1773.06,1766.07 1773.06,1755.57C1773.06,1745.07 1934.1,1736.55 2132.45,1736.55Z"/></g><g transform="matrix(1.12577,0,0,0.981901,-252.162,-122.81)"><rect x="2574.85" y="1473.79" width="15.2" height="313.946"/></g><g transform="matrix(1.12577,0,0,0.988673,-1564.53,-134.739)"><rect x="2574.85" y="1473.79" width="15.2" height="313.946"/></g><g transform="matrix(1.12577,0,0,1,-255.193,-148.287)"><rect x="2581.89" y="1718.8" width="7.373" height="0.429"/></g><g transform="matrix(1.03416,0,0,0.988791,-258.711,26.9132)"><path d="M2169.2,1606.18C2181.2,1606.18 2190.95,1616.38 2190.95,1628.93C2190.95,1641.49 2181.2,1651.69 2169.2,1651.69C2157.19,1651.69 2147.44,1641.49 2147.44,1628.93C2147.44,1616.38 2157.19,1606.18 2169.2,1606.18ZM2169.2,1617.56C2175.2,1617.56 2180.07,1622.65 2180.07,1628.93C2180.07,1635.21 2175.2,1640.31 2169.2,1640.31C2163.19,1640.31 2158.32,1635.21 2158.32,1628.93C2158.32,1622.65 2163.19,1617.56 2169.2,1617.56Z"/></g><g transform="matrix(1.03416,0,0,0.988791,-86.4546,16.8075)"><path d="M2169.2,1606.18C2181.2,1606.18 2190.95,1616.38 2190.95,1628.93C2190.95,1641.49 2181.2,1651.69 2169.2,1651.69C2157.19,1651.69 2147.44,1641.49 2147.44,1628.93C2147.44,1616.38 2157.19,1606.18 2169.2,1606.18ZM2169.2,1617.56C2175.2,1617.56 2180.07,1622.65 2180.07,1628.93C2180.07,1635.21 2175.2,1640.31 2169.2,1640.31C2163.19,1640.31 2158.32,1635.21 2158.32,1628.93C2158.32,1622.65 2163.19,1617.56 2169.2,1617.56Z"/></g><g transform="matrix(1.03416,0,0,0.988791,-309.781,-115.194)"><path d="M2169.2,1606.18C2181.2,1606.18 2190.95,1616.38 2190.95,1628.93C2190.95,1641.49 2181.2,1651.69 2169.2,1651.69C2157.19,1651.69 2147.44,1641.49 2147.44,1628.93C2147.44,1616.38 2157.19,1606.18 2169.2,1606.18ZM2169.2,1617.56C2175.2,1617.56 2180.07,1622.65 2180.07,1628.93C2180.07,1635.21 2175.2,1640.31 2169.2,1640.31C2163.19,1640.31 2158.32,1635.21 2158.32,1628.93C2158.32,1622.65 2163.19,1617.56 2169.2,1617.56Z"/></g><g transform="matrix(0.804346,0,0,0.76906,-58.0335,387.85)"><path d="M2169.2,1606.18C2181.2,1606.18 2190.95,1616.38 2190.95,1628.93C2190.95,1641.49 2181.2,1651.69 2169.2,1651.69C2157.19,1651.69 2147.44,1641.49 2147.44,1628.93C2147.44,1616.38 2157.19,1606.18 2169.2,1606.18ZM2169.2,1617.56C2175.2,1617.56 2180.07,1622.65 2180.07,1628.93C2180.07,1635.21 2175.2,1640.31 2169.2,1640.31C2163.19,1640.31 2158.32,1635.21 2158.32,1628.93C2158.32,1622.65 2163.19,1617.56 2169.2,1617.56Z"/></g><g transform="matrix(1.03416,0,0,0.988791,-131.212,-129.496)"><path d="M2169.2,1606.18C2181.2,1606.18 2190.95,1616.38 2190.95,1628.93C2190.95,1641.49 2181.2,1651.69 2169.2,1651.69C2157.19,1651.69 2147.44,1641.49 2147.44,1628.93C2147.44,1616.38 2157.19,1606.18 2169.2,1606.18ZM2169.2,1617.56C2175.2,1617.56 2180.07,1622.65 2180.07,1628.93C2180.07,1635.21 2175.2,1640.31 2169.2,1640.31C2163.19,1640.31 2158.32,1635.21 2158.32,1628.93C2158.32,1622.65 2163.19,1617.56 2169.2,1617.56Z"/></g><g transform="matrix(8.19757e-17,1.33876,-1.26797,7.7641e-17,3211.02,-2095.67)"><rect x="2278.09" y="552.176" width="12.698" height="310.732"/></g><g transform="matrix(-8.19757e-17,1.33876,1.26797,7.7641e-17,793.398,-2080.08)"><rect x="2278.09" y="552.176" width="12.698" height="310.732"/></g><g><g transform="matrix(0.860541,1.02555,-0.4191,0.351666,901.672,-1681.66)"><rect x="2278.09" y="552.176" width="12.698" height="310.732"/></g><g transform="matrix(-0.860541,1.02555,0.4191,0.351666,3102.74,-1666.07)"><rect x="2278.09" y="552.176" width="12.698" height="310.732"/></g><g transform="matrix(0.672088,0,0,0.572041,738.346,484.255)"><ellipse cx="2821.7" cy="646.174" rx="29.758" ry="34.963"/></g><g transform="matrix(-0.672088,0,0,0.572041,3266.07,499.845)"><ellipse cx="2821.7" cy="646.174" rx="29.758" ry="34.963"/></g></g><g transform="matrix(1,0,0,1,-223.937,0)"><g transform="matrix(0.860541,1.06417,-0.4191,0.364908,951.633,-1781.55)"><rect x="2278.09" y="552.176" width="12.698" height="310.732"/></g><g transform="matrix(-0.860541,1.06417,0.4191,0.364908,3500.66,-1765.96)"><rect x="2278.09" y="552.176" width="12.698" height="310.732"/></g><g transform="matrix(0.860541,1.06417,-0.292001,0.254244,999.813,-1950.78)"><rect x="2278.09" y="552.176" width="12.698" height="310.732"/></g><g transform="matrix(-0.860541,1.06417,0.292001,0.254244,3452.48,-1935.19)"><rect x="2278.09" y="552.176" width="12.698" height="310.732"/></g><g transform="matrix(1.33845,0.0303047,-0.00831541,0.395439,-471.396,178.577)"><rect x="2278.09" y="552.176" width="12.698" height="310.732"/></g><g transform="matrix(-1.33845,0.0303047,0.00831541,0.395439,4923.75,194.522)"><rect x="2278.09" y="552.176" width="12.698" height="310.732"/></g><g transform="matrix(1.33845,0.0303047,-0.0122209,0.581165,-743.872,65.7429)"><rect x="2278.09" y="552.176" width="12.698" height="310.732"/></g><g transform="matrix(-1.33845,0.0303047,0.0122209,0.581165,5164.09,65.7429)"><rect x="2278.09" y="552.176" width="12.698" height="310.732"/></g><g transform="matrix(1.33876,-1.57615e-17,1.9082e-16,1.29125,-848.866,-334.743)"><rect x="2278.09" y="552.176" width="12.698" height="310.732"/></g><g transform="matrix(-1.33876,-1.57615e-17,-1.9082e-16,1.29125,5269.09,-334.743)"><rect x="2278.09" y="552.176" width="12.698" height="310.732"/></g><g transform="matrix(1.33845,0.0303047,-0.00831541,0.395439,-654.231,140.707)"><rect x="2278.09" y="552.176" width="12.698" height="310.732"/></g><g transform="matrix(-1.33845,0.0303047,0.00831541,0.395439,5074.45,140.707)"><rect x="2278.09" y="552.176" width="12.698" height="310.732"/></g><g transform="matrix(1.33845,0.0303047,-0.00533032,0.253483,-563.972,301.072)"><rect x="2278.09" y="552.176" width="12.698" height="310.732"/></g><g transform="matrix(-1.33845,0.0303047,0.00533032,0.253483,5016.26,316.663)"><rect x="2278.09" y="552.176" width="12.698" height="310.732"/></g><g transform="matrix(0.860541,1.06417,-0.468405,0.407838,906.964,-1960.99)"><rect x="2278.09" y="552.176" width="12.698" height="310.732"/></g><g transform="matrix(-0.860541,1.06417,0.468405,0.407838,3545.33,-1945.4)"><rect x="2278.09" y="552.176" width="12.698" height="310.732"/></g><g transform="matrix(0.860541,1.06417,-0.315101,0.274357,701.153,-2000.59)"><rect x="2278.09" y="552.176" width="12.698" height="310.732"/></g><g transform="matrix(-0.860541,1.06417,0.315101,0.274357,3751.14,-1985)"><rect x="2278.09" y="552.176" width="12.698" height="310.732"/></g><g transform="matrix(0.860541,1.06417,-0.315101,0.274357,607.256,-2037.54)"><rect x="2278.09" y="552.176" width="12.698" height="310.732"/></g><g transform="matrix(-0.860541,1.06417,0.315101,0.274357,3812.97,-2037.54)"><rect x="2278.09" y="552.176" width="12.698" height="310.732"/></g><g transform="matrix(0.860541,1.06417,-0.315101,0.274357,514.952,-1882.2)"><rect x="2278.09" y="552.176" width="12.698" height="310.732"/></g><g transform="matrix(-0.860541,1.06417,0.315101,0.274357,3905.27,-1882.2)"><rect x="2278.09" y="552.176" width="12.698" height="310.732"/></g><g transform="matrix(0.860541,1.06417,-0.803404,0.69952,1059.8,-2234.74)"><rect x="2278.09" y="552.176" width="12.698" height="310.732"/></g><g transform="matrix(-0.860541,1.06417,0.803404,0.69952,3392.49,-2219.15)"><rect x="2278.09" y="552.176" width="12.698" height="310.732"/></g><g transform="matrix(-2.98301e-16,1.38918,-0.358311,9.84937e-17,2917.37,-2476.01)"><rect x="2278.09" y="552.176" width="12.698" height="310.732"/></g><g transform="matrix(2.98301e-16,1.38918,0.358311,9.84937e-17,1534.92,-2460.42)"><rect x="2278.09" y="552.176" width="12.698" height="310.732"/></g><g transform="matrix(1.33876,1.0165e-16,1.66533e-16,0.500908,-586.814,538.557)"><rect x="2278.09" y="552.176" width="12.698" height="310.732"/></g><g transform="matrix(-1.33876,1.0165e-16,-1.66533e-16,0.500908,5039.1,554.148)"><rect x="2278.09" y="552.176" width="12.698" height="310.732"/></g><g transform="matrix(1.33876,5.43465e-17,1.66533e-16,0.267809,-659.983,512.479)"><rect x="2278.09" y="552.176" width="12.698" height="310.732"/></g><g transform="matrix(-1.33876,5.43465e-17,-1.66533e-16,0.267809,5112.27,528.07)"><rect x="2278.09" y="552.176" width="12.698" height="310.732"/></g><g transform="matrix(1.33876,5.43465e-17,1.66533e-16,0.267809,-755.121,476.264)"><rect x="2278.09" y="552.176" width="12.698" height="310.732"/></g><g transform="matrix(-1.33876,5.43465e-17,-1.66533e-16,0.267809,5175.34,476.264)"><rect x="2278.09" y="552.176" width="12.698" height="310.732"/></g><g transform="matrix(1.33876,1.15203e-16,1.66533e-16,0.567696,-723.408,479.537)"><rect x="2278.09" y="552.176" width="12.698" height="310.732"/></g><g transform="matrix(-1.33876,1.15203e-16,-1.66533e-16,0.567696,5175.7,495.127)"><rect x="2278.09" y="552.176" width="12.698" height="310.732"/></g><g transform="matrix(0.672088,0,0,0.59358,788.307,465.922)"><ellipse cx="2821.7" cy="646.174" rx="29.758" ry="34.963"/></g><g transform="matrix(-0.672088,0,0,0.59358,3663.98,481.513)"><ellipse cx="2821.7" cy="646.174" rx="29.758" ry="34.963"/></g><g transform="matrix(0.672088,0,0,0.59358,916.62,226.072)"><ellipse cx="2821.7" cy="646.174" rx="29.758" ry="34.963"/></g><g transform="matrix(-0.672088,0,0,0.59358,3535.67,241.663)"><ellipse cx="2821.7" cy="646.174" rx="29.758" ry="34.963"/></g><g transform="matrix(0.443139,-0.52433,0.430083,0.391375,1054.9,1678.78)"><ellipse cx="2821.7" cy="646.174" rx="29.758" ry="34.963"/></g><g transform="matrix(-0.443139,-0.52433,-0.430083,0.391375,3399.05,1694.72)"><ellipse cx="2821.7" cy="646.174" rx="29.758" ry="34.963"/></g><g transform="matrix(0.443139,-0.52433,0.430083,0.391375,870.471,1640.91)"><ellipse cx="2821.7" cy="646.174" rx="29.758" ry="34.963"/></g><g transform="matrix(0.383572,-0.45385,0.376019,0.342177,1009.5,1799.42)"><ellipse cx="2821.7" cy="646.174" rx="29.758" ry="34.963"/></g><g transform="matrix(0.443139,-0.52433,0.420713,0.382849,594.097,1993.96)"><ellipse cx="2821.7" cy="646.174" rx="29.758" ry="34.963"/></g><g transform="matrix(-0.443139,-0.52433,-0.430083,0.391375,3549.75,1640.91)"><ellipse cx="2821.7" cy="646.174" rx="29.758" ry="34.963"/></g><g transform="matrix(0.443139,-0.52433,0.430083,0.391375,778.7,1666.09)"><ellipse cx="2821.7" cy="646.174" rx="29.758" ry="34.963"/></g><g transform="matrix(-0.443139,-0.52433,-0.430083,0.391375,3641.52,1666.09)"><ellipse cx="2821.7" cy="646.174" rx="29.758" ry="34.963"/></g><g transform="matrix(0.443139,-0.52433,0.430083,0.391375,681.613,1598.44)"><ellipse cx="2821.7" cy="646.174" rx="29.758" ry="34.963"/></g><g transform="matrix(-0.443139,-0.52433,-0.430083,0.391375,3738.61,1598.44)"><ellipse cx="2821.7" cy="646.174" rx="29.758" ry="34.963"/></g><g transform="matrix(0.443139,-0.52433,0.430083,0.391375,963.306,1730.44)"><ellipse cx="2821.7" cy="646.174" rx="29.758" ry="34.963"/></g><g transform="matrix(-0.443139,-0.52433,-0.430083,0.391375,3488.98,1746.03)"><ellipse cx="2821.7" cy="646.174" rx="29.758" ry="34.963"/></g></g></svg>