<svg width="300" height="100" viewBox="0 0 300 100" fill="none" xmlns="http://www.w3.org/2000/svg">
<rect width="300" height="100" fill="#F5F5F5"/>
<path d="M41.0525 86C37.3701 86 33.9462 85.5478 30.7806 84.6433C27.6151 83.8035 24.7079 82.4468 22.0592 80.5733C19.4751 78.6999 17.4401 76.1157 15.9542 72.821C14.533 69.5262 13.8869 65.6501 14.0162 61.1925H22.253C22.253 73.0148 28.5841 78.926 41.2463 78.926C46.6083 78.926 50.8398 77.7308 53.9408 75.3405C57.0417 72.8856 58.5922 69.4293 58.5922 64.9717C58.5922 63.2275 58.2692 61.7416 57.6232 60.5141C56.9771 59.2221 55.7497 58.0269 53.9408 56.9287C52.1965 55.8304 50.5168 54.9583 48.9018 54.3122C47.2867 53.6016 44.7349 52.6003 41.2463 51.3082C34.7214 48.9179 29.9085 46.3984 26.8075 43.7497C23.7066 41.1009 22.1561 37.4832 22.1561 32.8964C22.1561 27.2113 24.288 22.6568 28.5518 19.2328C32.8802 15.7443 38.3392 14 44.9287 14C52.358 14 58.3015 15.7443 62.7591 19.2328C67.2167 22.7214 69.6393 28.1803 70.0269 35.6097H61.8869C61.4347 25.8546 55.782 20.9771 44.9287 20.9771C35.109 20.9771 30.1992 24.6918 30.1992 32.1211C30.1992 34.7698 31.3297 36.9017 33.5908 38.5168C35.852 40.1319 39.5989 41.8762 44.8318 43.7497C47.9973 44.9125 50.4522 45.8493 52.1965 46.5599C53.9408 47.2705 55.9112 48.2396 58.1077 49.467C60.3042 50.6945 61.9515 51.9219 63.0498 53.1494C64.1481 54.3768 65.0848 55.9273 65.86 57.8008C66.6353 59.6097 67.0229 61.677 67.0229 64.0027C67.0229 70.5922 64.6972 75.9219 60.0458 79.9919C55.3943 83.9973 49.0633 86 41.0525 86Z" fill="#22333B"/>
<path d="M92.854 15.3567L87.6211 42.393H87.8149C89.9468 39.6151 92.6279 37.4186 95.858 35.8035C99.1528 34.1884 102.641 33.3809 106.324 33.3809C111.234 33.3809 114.722 34.8022 116.789 37.6447C118.857 40.4226 119.438 44.2988 118.534 49.2732L111.653 84.6433H103.998L110.878 49.2732C111.46 46.1077 111.234 43.7497 110.2 42.1992C109.231 40.6487 107.26 39.8735 104.289 39.8735C99.7665 39.8735 95.6319 41.5209 91.8849 44.8156C88.138 48.1104 85.8122 52.0188 84.9078 56.541L79.4812 84.6433H71.7288L85.1016 15.3567H92.854Z" fill="#22333B"/>
<path d="M144.662 86C138.524 86 133.453 84.0619 129.448 80.1857C125.507 76.3096 123.536 70.9475 123.536 64.0996C123.536 55.6366 125.959 48.4011 130.804 42.393C135.649 36.3203 142.045 33.284 149.991 33.284C156.129 33.284 161.168 35.2867 165.108 39.2921C169.049 43.2974 171.02 48.6595 171.02 55.3782C171.02 63.7766 168.662 70.9798 163.945 76.9879C159.229 82.996 152.801 86 144.662 86ZM131.289 64.0027C131.289 68.5895 132.452 72.3365 134.777 75.2436C137.168 78.0861 140.559 79.5074 144.952 79.5074C150.637 79.5074 155.095 77.1817 158.325 72.5303C161.555 67.8789 163.17 62.1615 163.17 55.3782C163.17 50.856 162.04 47.109 159.779 44.1373C157.518 41.1655 154.19 39.6797 149.797 39.6797C143.983 39.6797 139.429 42.07 136.134 46.8506C132.904 51.6312 131.289 57.3486 131.289 64.0027Z" fill="#22333B"/>
<path d="M183.592 84.6433L175.549 34.5437H183.689L188.147 66.3284L189.309 77.0848H189.503C191.183 73.2086 192.83 69.6231 194.445 66.3284L210.435 34.5437H218.672L192.217 84.6433H183.592Z" fill="#22333B"/>
<path d="M261.342 61.4832H224.034C223.969 62.1292 223.937 63.0659 223.937 64.2934C223.937 68.8802 225.132 72.5626 227.522 75.3405C229.913 78.1184 233.337 79.5074 237.794 79.5074C241.089 79.5074 243.996 78.603 246.516 76.7941C249.035 74.9852 250.844 72.4334 251.942 69.1386H259.501C257.563 74.6945 254.656 78.8937 250.779 81.7362C246.903 84.5787 242.316 86 237.019 86C231.011 86 226.004 84.0296 221.999 80.0888C218.058 76.148 216.088 70.8506 216.088 64.1965C216.088 55.6689 218.607 48.4011 223.646 42.393C228.685 36.3203 234.855 33.284 242.155 33.284C247.259 33.284 251.458 34.5114 254.753 36.9664C260.954 41.6178 263.151 49.79 261.342 61.4832ZM241.864 39.389C237.6 39.389 233.983 40.8748 231.011 43.8466C228.039 46.7537 225.972 50.6622 224.809 55.572H253.977C254.494 50.7268 253.719 46.8183 251.652 43.8466C249.584 40.8748 246.322 39.389 241.864 39.389Z" fill="#22333B"/>
<path d="M264.409 84.6433L277.782 15.3567H285.534L272.161 84.6433H264.409Z" fill="#22333B"/>
</svg>
